<svg width="113" height="34" viewBox="0 0 113 34" fill="none" xmlns="http://www.w3.org/2000/svg">
<path d="M5.9374 25C5.2654 25 4.6654 24.816 4.1374 24.448C3.6094 24.08 3.1934 23.576 2.8894 22.936C2.6014 22.28 2.4574 21.528 2.4574 20.68V7.336C2.4574 7.016 2.5534 6.76 2.7454 6.568C2.9534 6.36 3.2174 6.256 3.5374 6.256C3.8734 6.256 4.1374 6.36 4.3294 6.568C4.5374 6.76 4.6414 7.016 4.6414 7.336V20.68C4.6414 21.304 4.7614 21.816 5.0014 22.216C5.2574 22.616 5.5694 22.816 5.9374 22.816H6.5374C6.8414 22.816 7.0814 22.92 7.2574 23.128C7.4334 23.32 7.5214 23.584 7.5214 23.92C7.5214 24.24 7.3854 24.504 7.1134 24.712C6.8574 24.904 6.5214 25 6.1054 25H5.9374ZM14.8341 25.096C13.6341 25.096 12.5621 24.808 11.6181 24.232C10.6741 23.656 9.93009 22.864 9.38609 21.856C8.84209 20.848 8.57009 19.712 8.57009 18.448C8.57009 17.168 8.85809 16.032 9.43409 15.04C10.0261 14.032 10.8181 13.24 11.8101 12.664C12.8181 12.072 13.9461 11.776 15.1941 11.776C16.4581 11.776 17.5861 12.072 18.5781 12.664C19.5701 13.24 20.3541 14.032 20.9301 15.04C21.5221 16.048 21.8261 17.184 21.8421 18.448L20.9781 18.664C20.9781 19.88 20.7061 20.976 20.1621 21.952C19.6181 22.928 18.8821 23.696 17.9541 24.256C17.0421 24.816 16.0021 25.096 14.8341 25.096ZM15.1941 23.128C16.0581 23.128 16.8261 22.928 17.4981 22.528C18.1701 22.112 18.6981 21.552 19.0821 20.848C19.4821 20.128 19.6821 19.328 19.6821 18.448C19.6821 17.552 19.4821 16.752 19.0821 16.048C18.6981 15.328 18.1701 14.768 17.4981 14.368C16.8261 13.952 16.0581 13.744 15.1941 13.744C14.3621 13.744 13.6021 13.952 12.9141 14.368C12.2261 14.768 11.6821 15.328 11.2821 16.048C10.8981 16.752 10.7061 17.552 10.7061 18.448C10.7061 19.328 10.8981 20.128 11.2821 20.848C11.6821 21.552 12.2261 22.112 12.9141 22.528C13.6021 22.928 14.3621 23.128 15.1941 23.128ZM20.7141 25.024C20.3941 25.024 20.1301 24.92 19.9221 24.712C19.7141 24.504 19.6101 24.24 19.6101 23.92V20.08L20.0661 17.776L21.8421 18.448V23.92C21.8421 24.24 21.7301 24.504 21.5061 24.712C21.2981 24.92 21.0341 25.024 20.7141 25.024ZM32.0849 25.096C30.8369 25.096 29.7089 24.808 28.7009 24.232C27.7089 23.656 26.9249 22.864 26.3489 21.856C25.7729 20.848 25.4769 19.72 25.4609 18.472V7.36C25.4609 7.024 25.5649 6.76 25.7729 6.568C25.9809 6.36 26.2449 6.256 26.5649 6.256C26.9009 6.256 27.1649 6.36 27.3569 6.568C27.5649 6.76 27.6689 7.024 27.6689 7.36V14.08C28.2289 13.376 28.9169 12.816 29.7329 12.4C30.5489 11.984 31.4609 11.776 32.4689 11.776C33.6529 11.776 34.7169 12.072 35.6609 12.664C36.6049 13.24 37.3489 14.032 37.8929 15.04C38.4529 16.032 38.7329 17.16 38.7329 18.424C38.7329 19.688 38.4369 20.824 37.8449 21.832C37.2689 22.84 36.4769 23.64 35.4689 24.232C34.4769 24.808 33.3489 25.096 32.0849 25.096ZM32.0849 23.128C32.9329 23.128 33.6929 22.928 34.3649 22.528C35.0529 22.112 35.5889 21.552 35.9729 20.848C36.3729 20.128 36.5729 19.32 36.5729 18.424C36.5729 17.528 36.3729 16.728 35.9729 16.024C35.5889 15.32 35.0529 14.768 34.3649 14.368C33.6929 13.952 32.9329 13.744 32.0849 13.744C31.2369 13.744 30.4689 13.952 29.7809 14.368C29.1089 14.768 28.5809 15.32 28.1969 16.024C27.8129 16.728 27.6209 17.528 27.6209 18.424C27.6209 19.32 27.8129 20.128 28.1969 20.848C28.5809 21.552 29.1089 22.112 29.7809 22.528C30.4689 22.928 31.2369 23.128 32.0849 23.128Z" fill="black"/>
<mask id="mask0_8_75" style="mask-type:luminance" maskUnits="userSpaceOnUse" x="1" y="5" width="39" height="21">
<path d="M39.5 5H1.5V26H39.5V5Z" fill="white"/>
<path d="M5.9374 25C5.2654 25 4.6654 24.816 4.1374 24.448C3.6094 24.08 3.1934 23.576 2.8894 22.936C2.6014 22.28 2.4574 21.528 2.4574 20.68V7.336C2.4574 7.016 2.5534 6.76 2.7454 6.568C2.9534 6.36 3.2174 6.256 3.5374 6.256C3.8734 6.256 4.1374 6.36 4.3294 6.568C4.5374 6.76 4.6414 7.016 4.6414 7.336V20.68C4.6414 21.304 4.7614 21.816 5.0014 22.216C5.2574 22.616 5.5694 22.816 5.9374 22.816H6.5374C6.8414 22.816 7.0814 22.92 7.2574 23.128C7.4334 23.32 7.5214 23.584 7.5214 23.92C7.5214 24.24 7.3854 24.504 7.1134 24.712C6.8574 24.904 6.5214 25 6.1054 25H5.9374ZM14.8341 25.096C13.6341 25.096 12.5621 24.808 11.6181 24.232C10.6741 23.656 9.93009 22.864 9.38609 21.856C8.84209 20.848 8.57009 19.712 8.57009 18.448C8.57009 17.168 8.85809 16.032 9.43409 15.04C10.0261 14.032 10.8181 13.24 11.8101 12.664C12.8181 12.072 13.9461 11.776 15.1941 11.776C16.4581 11.776 17.5861 12.072 18.5781 12.664C19.5701 13.24 20.3541 14.032 20.9301 15.04C21.5221 16.048 21.8261 17.184 21.8421 18.448L20.9781 18.664C20.9781 19.88 20.7061 20.976 20.1621 21.952C19.6181 22.928 18.8821 23.696 17.9541 24.256C17.0421 24.816 16.0021 25.096 14.8341 25.096ZM15.1941 23.128C16.0581 23.128 16.8261 22.928 17.4981 22.528C18.1701 22.112 18.6981 21.552 19.0821 20.848C19.4821 20.128 19.6821 19.328 19.6821 18.448C19.6821 17.552 19.4821 16.752 19.0821 16.048C18.6981 15.328 18.1701 14.768 17.4981 14.368C16.8261 13.952 16.0581 13.744 15.1941 13.744C14.3621 13.744 13.6021 13.952 12.9141 14.368C12.2261 14.768 11.6821 15.328 11.2821 16.048C10.8981 16.752 10.7061 17.552 10.7061 18.448C10.7061 19.328 10.8981 20.128 11.2821 20.848C11.6821 21.552 12.2261 22.112 12.9141 22.528C13.6021 22.928 14.3621 23.128 15.1941 23.128ZM20.7141 25.024C20.3941 25.024 20.1301 24.92 19.9221 24.712C19.7141 24.504 19.6101 24.24 19.6101 23.92V20.08L20.0661 17.776L21.8421 18.448V23.92C21.8421 24.24 21.7301 24.504 21.5061 24.712C21.2981 24.92 21.0341 25.024 20.7141 25.024ZM32.0849 25.096C30.8369 25.096 29.7089 24.808 28.7009 24.232C27.7089 23.656 26.9249 22.864 26.3489 21.856C25.7729 20.848 25.4769 19.72 25.4609 18.472V7.36C25.4609 7.024 25.5649 6.76 25.7729 6.568C25.9809 6.36 26.2449 6.256 26.5649 6.256C26.9009 6.256 27.1649 6.36 27.3569 6.568C27.5649 6.76 27.6689 7.024 27.6689 7.36V14.08C28.2289 13.376 28.9169 12.816 29.7329 12.4C30.5489 11.984 31.4609 11.776 32.4689 11.776C33.6529 11.776 34.7169 12.072 35.6609 12.664C36.6049 13.24 37.3489 14.032 37.8929 15.04C38.4529 16.032 38.7329 17.16 38.7329 18.424C38.7329 19.688 38.4369 20.824 37.8449 21.832C37.2689 22.84 36.4769 23.64 35.4689 24.232C34.4769 24.808 33.3489 25.096 32.0849 25.096ZM32.0849 23.128C32.9329 23.128 33.6929 22.928 34.3649 22.528C35.0529 22.112 35.5889 21.552 35.9729 20.848C36.3729 20.128 36.5729 19.32 36.5729 18.424C36.5729 17.528 36.3729 16.728 35.9729 16.024C35.5889 15.32 35.0529 14.768 34.3649 14.368C33.6929 13.952 32.9329 13.744 32.0849 13.744C31.2369 13.744 30.4689 13.952 29.7809 14.368C29.1089 14.768 28.5809 15.32 28.1969 16.024C27.8129 16.728 27.6209 17.528 27.6209 18.424C27.6209 19.32 27.8129 20.128 28.1969 20.848C28.5809 21.552 29.1089 22.112 29.7809 22.528C30.4689 22.928 31.2369 23.128 32.0849 23.128Z" fill="black"/>
</mask>
<g mask="url(#mask0_8_75)">
<path d="M2.88937 22.936L2.52295 23.0969L2.52806 23.1076L2.88937 22.936ZM4.32937 6.568L4.03545 6.83931L4.04631 6.85107L4.05806 6.86192L4.32937 6.568ZM5.00137 22.216L4.65823 22.4219L4.66447 22.4316L5.00137 22.216ZM7.25737 23.128L6.95202 23.3864L6.95715 23.3924L6.96251 23.3983L7.25737 23.128ZM7.11337 24.712L7.35338 25.032L7.35635 25.0297L7.11337 24.712ZM5.93737 25V24.6C5.34333 24.6 4.82391 24.4389 4.36609 24.1198L4.13737 24.448L3.90866 24.7762C4.50684 25.1931 5.18742 25.4 5.93737 25.4V25ZM4.13737 24.448L4.36609 24.1198C3.90077 23.7955 3.52794 23.3481 3.25068 22.7644L2.88937 22.936L2.52806 23.1076C2.85881 23.8039 3.31797 24.3645 3.90866 24.7762L4.13737 24.448ZM2.88937 22.936L3.25563 22.7752C2.99359 22.1783 2.85737 21.4827 2.85737 20.68H2.45737H2.05737C2.05737 21.5733 2.20899 22.3818 2.52295 23.0969L2.88937 22.936ZM2.45737 20.68H2.85737V7.336H2.45737H2.05737V20.68H2.45737ZM2.45737 7.336H2.85737C2.85737 7.1017 2.92451 6.95455 3.02822 6.85084L2.74537 6.568L2.46253 6.28516C2.18224 6.56545 2.05737 6.9303 2.05737 7.336H2.45737ZM2.74537 6.568L3.02822 6.85084C3.15424 6.72482 3.31319 6.656 3.53737 6.656V6.256V5.856C3.12156 5.856 2.75251 5.99518 2.46253 6.28516L2.74537 6.568ZM3.53737 6.256V6.656C3.78445 6.656 3.93332 6.72866 4.03545 6.83931L4.32937 6.568L4.6233 6.29669C4.34143 5.99133 3.9623 5.856 3.53737 5.856V6.256ZM4.32937 6.568L4.05806 6.86192C4.17291 6.96794 4.24137 7.11156 4.24137 7.336H4.64137H5.04137C5.04137 6.92044 4.90183 6.55206 4.60069 6.27408L4.32937 6.568ZM4.64137 7.336H4.24137V20.68H4.64137H5.04137V7.336H4.64137ZM4.64137 20.68H4.24137C4.24137 21.3528 4.37037 21.9421 4.65823 22.4219L5.00137 22.216L5.34437 22.0102C5.15223 21.69 5.04137 21.2552 5.04137 20.68H4.64137ZM5.00137 22.216L4.66447 22.4316C4.96986 22.9088 5.39355 23.216 5.93737 23.216V22.816V22.416C5.7452 22.416 5.54489 22.3232 5.33828 22.0004L5.00137 22.216ZM5.93737 22.816V23.216H6.53737V22.816V22.416H5.93737V22.816ZM6.53737 22.816V23.216C6.73903 23.216 6.86139 23.2793 6.95202 23.3864L7.25737 23.128L7.56273 22.8696C7.30136 22.5607 6.94372 22.416 6.53737 22.416V22.816ZM7.25737 23.128L6.96251 23.3983C7.05307 23.4971 7.12137 23.6541 7.12137 23.92H7.52137H7.92137C7.92137 23.5139 7.81368 23.1429 7.55224 22.8577L7.25737 23.128ZM7.52137 23.92H7.12137C7.12137 24.1056 7.05146 24.2558 6.87039 24.3943L7.11337 24.712L7.35635 25.0297C7.71929 24.7522 7.92137 24.3744 7.92137 23.92H7.52137ZM7.11337 24.712L6.87337 24.392C6.70487 24.5184 6.46084 24.6 6.10537 24.6V25V25.4C6.58191 25.4 7.00988 25.2896 7.35338 25.032L7.11337 24.712ZM6.10537 25V24.6H5.93737V25V25.4H6.10537V25ZM9.43406 15.04L9.08914 14.8374L9.08815 14.8391L9.43406 15.04ZM11.81 12.664L12.0109 13.0099L12.0126 13.0089L11.81 12.664ZM18.578 12.664L18.373 13.0075L18.3772 13.0099L18.578 12.664ZM20.93 15.04L20.5827 15.2385L20.5851 15.2426L20.93 15.04ZM21.842 18.448L21.939 18.8361L22.246 18.7593L22.242 18.4429L21.842 18.448ZM20.978 18.664L20.881 18.2759L20.578 18.3517V18.664H20.978ZM17.954 24.256L17.7474 23.9135L17.7447 23.9151L17.954 24.256ZM17.498 22.528L17.7027 22.8718L17.7086 22.8681L17.498 22.528ZM19.082 20.848L18.7324 20.6537L18.7309 20.6565L19.082 20.848ZM19.082 16.048L18.729 16.2363L18.7342 16.2456L19.082 16.048ZM17.498 14.368L17.2875 14.7082L17.2934 14.7117L17.498 14.368ZM12.914 14.368L13.1151 14.7139L13.121 14.7103L12.914 14.368ZM11.282 16.048L10.9324 15.8537L10.9309 15.8565L11.282 16.048ZM11.282 20.848L10.929 21.0363L10.9342 21.0456L11.282 20.848ZM12.914 22.528L12.707 22.8703L12.713 22.8738L12.914 22.528ZM19.61 20.08L19.2176 20.0023L19.21 20.0408V20.08H19.61ZM20.066 17.776L20.2076 17.4019L19.7654 17.2346L19.6736 17.6983L20.066 17.776ZM21.842 18.448H22.242V18.1717L21.9836 18.0739L21.842 18.448ZM21.506 24.712L21.2339 24.4189L21.2284 24.4239L21.2232 24.4292L21.506 24.712ZM14.834 25.096V24.696C13.7011 24.696 12.7023 24.425 11.8264 23.8905L11.618 24.232L11.4097 24.5735C12.4218 25.191 13.567 25.496 14.834 25.496V25.096ZM11.618 24.232L11.8264 23.8905C10.9451 23.3528 10.2497 22.614 9.73807 21.666L9.38606 21.856L9.03405 22.046C9.61043 23.114 10.403 23.9592 11.4097 24.5735L11.618 24.232ZM9.38606 21.856L9.73807 21.666C9.22874 20.7223 8.97006 19.6527 8.97006 18.448H8.57006H8.17006C8.17006 19.7713 8.45539 20.9737 9.03405 22.046L9.38606 21.856ZM8.57006 18.448H8.97006C8.97006 17.2302 9.24338 16.165 9.77998 15.2409L9.43406 15.04L9.08815 14.8391C8.47274 15.899 8.17006 17.1058 8.17006 18.448H8.57006ZM9.43406 15.04L9.77898 15.2426C10.3368 14.2928 11.0796 13.5506 12.0109 13.0099L11.81 12.664L11.6092 12.3181C10.5564 12.9294 9.71532 13.7712 9.08914 14.8374L9.43406 15.04ZM11.81 12.664L12.0126 13.0089C12.955 12.4554 14.0123 12.176 15.194 12.176V11.776V11.376C13.8798 11.376 12.681 11.6886 11.6075 12.3191L11.81 12.664ZM15.194 11.776V12.176C16.3929 12.176 17.4488 12.4559 18.373 13.0075L18.578 12.664L18.783 12.3205C17.7233 11.6881 16.5232 11.376 15.194 11.376V11.776ZM18.578 12.664L18.3772 13.0099C19.3075 13.5501 20.0413 14.2909 20.5827 15.2385L20.93 15.04L21.2773 14.8415C20.6668 13.7731 19.8326 12.9299 18.7789 12.3181L18.578 12.664ZM20.93 15.04L20.5851 15.2426C21.1391 16.1858 21.4269 17.2527 21.4421 18.4531L21.842 18.448L22.242 18.4429C22.2252 17.1153 21.905 15.9102 21.2749 14.8374L20.93 15.04ZM21.842 18.448L21.745 18.0599L20.881 18.2759L20.978 18.664L21.075 19.0521L21.939 18.8361L21.842 18.448ZM20.978 18.664H20.578C20.578 19.818 20.3206 20.846 19.8126 21.7573L20.162 21.952L20.5114 22.1467C21.0915 21.106 21.378 19.942 21.378 18.664H20.978ZM20.162 21.952L19.8126 21.7573C19.3014 22.6744 18.6138 23.3906 17.7474 23.9135L17.954 24.256L18.1607 24.5985C19.1502 24.0014 19.9346 23.1816 20.5114 22.1467L20.162 21.952ZM17.954 24.256L17.7447 23.9151C16.9014 24.433 15.9351 24.696 14.834 24.696V25.096V25.496C16.0689 25.496 17.1827 25.199 18.1633 24.5969L17.954 24.256ZM15.194 23.128V23.528C16.1223 23.528 16.9625 23.3124 17.7027 22.8718L17.498 22.528L17.2934 22.1843C16.6897 22.5437 15.9938 22.728 15.194 22.728V23.128ZM17.498 22.528L17.7086 22.8681C18.4404 22.4151 19.0165 21.8035 19.4332 21.0395L19.082 20.848L18.7309 20.6565C18.3796 21.3005 17.8996 21.8089 17.2875 22.1879L17.498 22.528ZM19.082 20.848L19.4317 21.0423C19.867 20.2588 20.082 19.3912 20.082 18.448H19.682H19.282C19.282 19.2648 19.0971 19.9972 18.7324 20.6537L19.082 20.848ZM19.682 18.448H20.082C20.082 17.4903 19.8676 16.6209 19.4298 15.8504L19.082 16.048L18.7342 16.2456C19.0965 16.8831 19.282 17.6137 19.282 18.448H19.682ZM19.082 16.048L19.435 15.8598C19.0182 15.0783 18.4401 14.4633 17.7026 14.0243L17.498 14.368L17.2934 14.7117C17.8999 15.0727 18.3778 15.5778 18.729 16.2363L19.082 16.048ZM17.498 14.368L17.7086 14.0279C16.9675 13.5691 16.1252 13.344 15.194 13.344V13.744V14.144C15.9908 14.144 16.6846 14.335 17.2875 14.7082L17.498 14.368ZM15.194 13.744V13.344C14.2917 13.344 13.4597 13.5706 12.7071 14.0257L12.914 14.368L13.121 14.7103C13.7443 14.3334 14.4323 14.144 15.194 14.144V13.744ZM12.914 14.368L12.713 14.0222C11.9605 14.4597 11.3661 15.0731 10.9324 15.8537L11.282 16.048L11.6317 16.2423C11.998 15.5829 12.4916 15.0764 13.1151 14.7139L12.914 14.368ZM11.282 16.048L10.9309 15.8565C10.5112 16.6259 10.306 17.4931 10.306 18.448H10.706H11.106C11.106 17.6109 11.2849 16.8781 11.6332 16.2395L11.282 16.048ZM10.706 18.448H10.306C10.306 19.3884 10.5117 20.2539 10.929 21.0363L11.282 20.848L11.635 20.6598C11.2843 20.0022 11.106 19.2676 11.106 18.448H10.706ZM11.282 20.848L10.9342 21.0456C11.3678 21.8086 11.96 22.4186 12.707 22.8703L12.914 22.528L13.121 22.1857C12.492 21.8054 11.9963 21.2954 11.6298 20.6504L11.282 20.848ZM12.914 22.528L12.713 22.8738C13.4649 23.3109 14.2948 23.528 15.194 23.528V23.128V22.728C14.4293 22.728 13.7392 22.5451 13.1151 22.1822L12.914 22.528ZM20.714 25.024V24.624C20.4898 24.624 20.3309 24.5552 20.2049 24.4292L19.922 24.712L19.6392 24.9948C19.9292 25.2848 20.2982 25.424 20.714 25.424V25.024ZM19.922 24.712L20.2049 24.4292C20.0789 24.3031 20.01 24.1442 20.01 23.92H19.61H19.21C19.21 24.3358 19.3492 24.7049 19.6392 24.9948L19.922 24.712ZM19.61 23.92H20.01V20.08H19.61H19.21V23.92H19.61ZM19.61 20.08L20.0024 20.1577L20.4584 17.8537L20.066 17.776L19.6736 17.6983L19.2176 20.0023L19.61 20.08ZM20.066 17.776L19.9245 18.1501L21.7005 18.8221L21.842 18.448L21.9836 18.0739L20.2076 17.4019L20.066 17.776ZM21.842 18.448H21.442V23.92H21.842H22.242V18.448H21.842ZM21.842 23.92H21.442C21.442 24.1346 21.3721 24.2905 21.2339 24.4189L21.506 24.712L21.7782 25.0051C22.0879 24.7175 22.242 24.3454 22.242 23.92H21.842ZM21.506 24.712L21.2232 24.4292C21.0972 24.5552 20.9382 24.624 20.714 24.624V25.024V25.424C21.1298 25.424 21.4989 25.2848 21.7889 24.9948L21.506 24.712ZM28.7008 24.232L28.4999 24.5779L28.5023 24.5793L28.7008 24.232ZM25.4608 18.472H25.0607L25.0608 18.4771L25.4608 18.472ZM25.7728 6.568L26.0441 6.86192L26.05 6.8565L26.0556 6.85084L25.7728 6.568ZM27.3568 6.568L27.0629 6.83931L27.0737 6.85107L27.0855 6.86192L27.3568 6.568ZM27.6688 14.08H27.2688V15.2254L27.9818 14.329L27.6688 14.08ZM35.6608 12.664L35.4483 13.0029L35.4524 13.0055L35.6608 12.664ZM37.8928 15.04L37.5407 15.23L37.5445 15.2366L37.8928 15.04ZM37.8448 21.832L37.4998 21.6294L37.4975 21.6335L37.8448 21.832ZM35.4688 24.232L35.6696 24.5779L35.6714 24.5769L35.4688 24.232ZM34.3648 22.528L34.5694 22.8717L34.5717 22.8703L34.3648 22.528ZM35.9728 20.848L35.6231 20.6537L35.6216 20.6565L35.9728 20.848ZM35.9728 16.024L35.6216 16.2156L35.625 16.2216L35.9728 16.024ZM34.3648 14.368L34.1542 14.7082L34.1637 14.7138L34.3648 14.368ZM29.7808 14.368L29.9854 14.7117L29.9877 14.7103L29.7808 14.368ZM28.1968 20.848L27.8438 21.0362L27.8456 21.0395L28.1968 20.848ZM29.7808 22.528L29.5702 22.8682L29.5797 22.8738L29.7808 22.528ZM32.0848 25.096V24.696C30.901 24.696 29.8423 24.4236 28.8992 23.8847L28.7008 24.232L28.5023 24.5793C29.5753 25.1924 30.7726 25.496 32.0848 25.496V25.096ZM28.7008 24.232L28.9016 23.8861C27.9714 23.3459 27.2376 22.6051 26.6961 21.6575L26.3488 21.856L26.0015 22.0545C26.612 23.1229 27.4462 23.9661 28.4999 24.5779L28.7008 24.232ZM26.3488 21.856L26.6961 21.6575C26.1563 20.7129 25.8759 19.6523 25.8607 18.4669L25.4608 18.472L25.0608 18.4771C25.0776 19.7877 25.3893 20.9831 26.0015 22.0545L26.3488 21.856ZM25.4608 18.472H25.8608V7.36H25.4608H25.0608L25.0607 18.472H25.4608ZM25.4608 7.36H25.8608C25.8608 7.11293 25.9334 6.96406 26.0441 6.86192L25.7728 6.568L25.5015 6.27408C25.1961 6.55594 25.0608 6.93507 25.0608 7.36H25.4608ZM25.7728 6.568L26.0556 6.85084C26.1816 6.72482 26.3406 6.656 26.5648 6.656V6.256V5.856C26.149 5.856 25.7799 5.99518 25.4899 6.28516L25.7728 6.568ZM26.5648 6.256V6.656C26.8119 6.656 26.9607 6.72866 27.0629 6.83931L27.3568 6.568L27.6507 6.29669C27.3688 5.99133 26.9897 5.856 26.5648 5.856V6.256ZM27.3568 6.568L27.0855 6.86192C27.1961 6.96406 27.2688 7.11293 27.2688 7.36H27.6688H28.0688C28.0688 6.93507 27.9334 6.55594 27.6281 6.27408L27.3568 6.568ZM27.6688 7.36H27.2688V14.08H27.6688H28.0688V7.36H27.6688ZM27.6688 14.08L27.9818 14.329C28.5056 13.6706 29.1485 13.1469 29.9145 12.7564L29.7328 12.4L29.5511 12.0436C28.6851 12.4851 27.952 13.0814 27.3557 13.831L27.6688 14.08ZM29.7328 12.4L29.9145 12.7564C30.6687 12.3718 31.5175 12.176 32.4688 12.176V11.776V11.376C31.4041 11.376 30.4289 11.5962 29.5511 12.0436L29.7328 12.4ZM32.4688 11.776V12.176C33.5825 12.176 34.572 12.4533 35.4483 13.0029L35.6608 12.664L35.8733 12.3251C34.8616 11.6907 33.723 11.376 32.4688 11.376V11.776ZM35.6608 12.664L35.4524 13.0055C36.3338 13.5432 37.029 14.282 37.5407 15.23L37.8928 15.04L38.2448 14.85C37.6684 13.782 36.8758 12.9368 35.8691 12.3225L35.6608 12.664ZM37.8928 15.04L37.5445 15.2366C38.067 16.1623 38.3328 17.2212 38.3328 18.424H38.7328H39.1328C39.1328 17.0988 38.8386 15.9017 38.2411 14.8434L37.8928 15.04ZM38.7328 18.424H38.3328C38.3328 19.6228 38.0528 20.6878 37.4998 21.6294L37.8448 21.832L38.1897 22.0346C38.8207 20.9602 39.1328 19.7532 39.1328 18.424H38.7328ZM37.8448 21.832L37.4975 21.6335C36.9564 22.5805 36.2145 23.3302 35.2662 23.8871L35.4688 24.232L35.6714 24.5769C36.7391 23.9498 37.5812 23.0995 38.1921 22.0305L37.8448 21.832ZM35.4688 24.232L35.2679 23.8861C34.343 24.4231 33.2856 24.696 32.0848 24.696V25.096V25.496C33.4119 25.496 34.6105 25.1929 35.6696 24.5779L35.4688 24.232ZM32.0848 23.128V23.528C32.9985 23.528 33.8303 23.3116 34.5694 22.8717L34.3648 22.528L34.1602 22.1843C33.5553 22.5444 32.867 22.728 32.0848 22.728V23.128ZM34.3648 22.528L34.5717 22.8703C35.3201 22.4178 35.906 21.8058 36.3239 21.0395L35.9728 20.848L35.6216 20.6565C35.2716 21.2982 34.7854 21.8062 34.1578 22.1857L34.3648 22.528ZM35.9728 20.848L36.3224 21.0423C36.7583 20.2577 36.9728 19.3818 36.9728 18.424H36.5728H36.1728C36.1728 19.2582 35.9873 19.9983 35.6231 20.6537L35.9728 20.848ZM36.5728 18.424H36.9728C36.9728 17.4663 36.7583 16.5969 36.3206 15.8264L35.9728 16.024L35.625 16.2216C35.9872 16.8591 36.1728 17.5897 36.1728 18.424H36.5728ZM35.9728 16.024L36.3239 15.8325C35.9052 15.0648 35.3175 14.4592 34.5658 14.0222L34.3648 14.368L34.1637 14.7138C34.788 15.0768 35.2723 15.5753 35.6216 16.2156L35.9728 16.024ZM34.3648 14.368L34.5753 14.0279C33.8354 13.5699 33.0015 13.344 32.0848 13.344V13.744V14.144C32.864 14.144 33.5501 14.3342 34.1542 14.7082L34.3648 14.368ZM32.0848 13.744V13.344C31.168 13.344 30.3277 13.5699 29.5738 14.0257L29.7808 14.368L29.9877 14.7103C30.6098 14.3341 31.3056 14.144 32.0848 14.144V13.744ZM29.7808 14.368L29.5762 14.0243C28.841 14.4619 28.263 15.0672 27.8456 15.8325L28.1968 16.024L28.5479 16.2155C28.8985 15.5728 29.3766 15.0741 29.9854 14.7117L29.7808 14.368ZM28.1968 16.024L27.8456 15.8325C27.426 16.6019 27.2208 17.4691 27.2208 18.424H27.6208H28.0208C28.0208 17.5869 28.1996 16.8541 28.5479 16.2155L28.1968 16.024ZM27.6208 18.424H27.2208C27.2208 19.3791 27.426 20.2528 27.8438 21.0362L28.1968 20.848L28.5497 20.6598C28.1996 20.0032 28.0208 19.2609 28.0208 18.424H27.6208ZM28.1968 20.848L27.8456 21.0395C28.2623 21.8035 28.8384 22.4152 29.5702 22.8682L29.7808 22.528L29.9913 22.1879C29.3792 21.8089 28.8992 21.3005 28.5479 20.6565L28.1968 20.848ZM29.7808 22.528L29.5797 22.8738C30.3328 23.3116 31.171 23.528 32.0848 23.528V23.128V22.728C31.3026 22.728 30.6048 22.5444 29.9818 22.1822L29.7808 22.528Z" fill="black"/>
</g>
<path d="M47.3874 25.096C46.3314 25.096 45.3314 24.936 44.3874 24.616C43.4434 24.28 42.6994 23.824 42.1554 23.248C41.9474 23.008 41.8594 22.744 41.8914 22.456C41.9234 22.168 42.0674 21.92 42.3234 21.712C42.5954 21.504 42.8754 21.416 43.1634 21.448C43.4514 21.48 43.6914 21.608 43.8834 21.832C44.2034 22.184 44.6674 22.488 45.2754 22.744C45.8994 23 46.5794 23.128 47.3154 23.128C48.3554 23.128 49.1234 22.96 49.6194 22.624C50.1314 22.272 50.3954 21.84 50.4114 21.328C50.4114 20.8 50.1634 20.36 49.6674 20.008C49.1714 19.64 48.2994 19.352 47.0514 19.144C45.4354 18.84 44.2594 18.368 43.5234 17.728C42.7874 17.088 42.4194 16.312 42.4194 15.4C42.4194 14.584 42.6434 13.912 43.0914 13.384C43.5554 12.84 44.1554 12.44 44.8914 12.184C45.6434 11.912 46.4354 11.776 47.2674 11.776C48.3234 11.776 49.2514 11.952 50.0514 12.304C50.8514 12.64 51.4914 13.112 51.9714 13.72C52.1794 13.96 52.2674 14.208 52.2354 14.464C52.2194 14.72 52.0914 14.936 51.8514 15.112C51.6114 15.256 51.3314 15.304 51.0114 15.256C50.7074 15.208 50.4514 15.072 50.2434 14.848C49.8434 14.432 49.3954 14.144 48.8994 13.984C48.4194 13.808 47.8594 13.72 47.2194 13.72C46.4514 13.72 45.8114 13.864 45.2994 14.152C44.8034 14.44 44.5554 14.832 44.5554 15.328C44.5554 15.648 44.6354 15.928 44.7954 16.168C44.9714 16.408 45.2914 16.632 45.7554 16.84C46.2194 17.032 46.8834 17.208 47.7474 17.368C48.9474 17.592 49.8914 17.888 50.5794 18.256C51.2834 18.624 51.7874 19.056 52.0914 19.552C52.3954 20.048 52.5474 20.608 52.5474 21.232C52.5474 21.968 52.3394 22.632 51.9234 23.224C51.5234 23.8 50.9394 24.256 50.1714 24.592C49.4034 24.928 48.4754 25.096 47.3874 25.096ZM61.7638 25.096C60.4358 25.096 59.2598 24.816 58.2358 24.256C57.2278 23.68 56.4358 22.896 55.8598 21.904C55.2838 20.896 54.9958 19.744 54.9958 18.448C54.9958 17.136 55.2678 15.984 55.8118 14.992C56.3558 13.984 57.1078 13.2 58.0678 12.64C59.0278 12.064 60.1398 11.776 61.4038 11.776C62.6358 11.776 63.6998 12.056 64.5958 12.616C65.4918 13.16 66.1798 13.92 66.6598 14.896C67.1398 15.856 67.3798 16.968 67.3798 18.232C67.3798 18.504 67.2838 18.736 67.0918 18.928C66.9158 19.104 66.6758 19.192 66.3718 19.192H56.5078V17.416H66.3958L65.4118 18.112C65.3958 17.264 65.2278 16.504 64.9078 15.832C64.5878 15.16 64.1318 14.632 63.5398 14.248C62.9478 13.864 62.2358 13.672 61.4038 13.672C60.4918 13.672 59.6998 13.88 59.0278 14.296C58.3718 14.712 57.8678 15.28 57.5158 16C57.1638 16.72 56.9878 17.536 56.9878 18.448C56.9878 19.36 57.1878 20.176 57.5878 20.896C58.0038 21.6 58.5638 22.16 59.2678 22.576C59.9878 22.992 60.8198 23.2 61.7638 23.2C62.2758 23.2 62.8038 23.104 63.3478 22.912C63.9078 22.72 64.3478 22.496 64.6678 22.24C64.8918 22.064 65.1318 21.976 65.3878 21.976C65.6438 21.96 65.8678 22.032 66.0598 22.192C66.2998 22.416 66.4278 22.664 66.4438 22.936C66.4598 23.192 66.3478 23.416 66.1078 23.608C65.5638 24.04 64.8838 24.4 64.0678 24.688C63.2678 24.96 62.4998 25.096 61.7638 25.096ZM81.6638 25.024C81.3438 25.024 81.0718 24.92 80.8478 24.712C80.6398 24.488 80.5358 24.224 80.5358 23.92V17.872C80.5358 16.928 80.3598 16.16 80.0078 15.568C79.6558 14.96 79.1838 14.512 78.5918 14.224C77.9998 13.92 77.3198 13.768 76.5518 13.768C75.8318 13.768 75.1838 13.912 74.6078 14.2C74.0318 14.488 73.5678 14.872 73.2158 15.352C72.8798 15.832 72.7118 16.384 72.7118 17.008H71.2718C71.2878 16 71.5438 15.104 72.0398 14.32C72.5358 13.52 73.2078 12.896 74.0558 12.448C74.9038 11.984 75.8558 11.752 76.9118 11.752C78.0318 11.752 79.0318 11.992 79.9118 12.472C80.7918 12.936 81.4878 13.624 81.9998 14.536C82.5118 15.448 82.7678 16.56 82.7678 17.872V23.92C82.7678 24.224 82.6558 24.488 82.4318 24.712C82.2238 24.92 81.9678 25.024 81.6638 25.024ZM71.6078 25.024C71.2878 25.024 71.0238 24.92 70.8158 24.712C70.6078 24.504 70.5038 24.24 70.5038 23.92V12.976C70.5038 12.64 70.6078 12.376 70.8158 12.184C71.0238 11.976 71.2878 11.872 71.6078 11.872C71.9438 11.872 72.2078 11.976 72.3998 12.184C72.6078 12.376 72.7118 12.64 72.7118 12.976V23.92C72.7118 24.24 72.6078 24.504 72.3998 24.712C72.2078 24.92 71.9438 25.024 71.6078 25.024ZM91.5203 25.096C90.4643 25.096 89.4643 24.936 88.5203 24.616C87.5763 24.28 86.8323 23.824 86.2883 23.248C86.0803 23.008 85.9923 22.744 86.0243 22.456C86.0563 22.168 86.2003 21.92 86.4563 21.712C86.7283 21.504 87.0083 21.416 87.2963 21.448C87.5843 21.48 87.8243 21.608 88.0163 21.832C88.3363 22.184 88.8003 22.488 89.4083 22.744C90.0323 23 90.7123 23.128 91.4483 23.128C92.4883 23.128 93.2563 22.96 93.7523 22.624C94.2643 22.272 94.5283 21.84 94.5443 21.328C94.5443 20.8 94.2963 20.36 93.8003 20.008C93.3043 19.64 92.4323 19.352 91.1843 19.144C89.5683 18.84 88.3923 18.368 87.6562 17.728C86.9203 17.088 86.5523 16.312 86.5523 15.4C86.5523 14.584 86.7763 13.912 87.2243 13.384C87.6883 12.84 88.2883 12.44 89.0243 12.184C89.7763 11.912 90.5683 11.776 91.4003 11.776C92.4563 11.776 93.3843 11.952 94.1843 12.304C94.9843 12.64 95.6243 13.112 96.1043 13.72C96.3123 13.96 96.4003 14.208 96.3683 14.464C96.3523 14.72 96.2243 14.936 95.9843 15.112C95.7443 15.256 95.4643 15.304 95.1443 15.256C94.8403 15.208 94.5843 15.072 94.3763 14.848C93.9763 14.432 93.5283 14.144 93.0323 13.984C92.5523 13.808 91.9923 13.72 91.3523 13.72C90.5843 13.72 89.9443 13.864 89.4323 14.152C88.9363 14.44 88.6883 14.832 88.6883 15.328C88.6883 15.648 88.7683 15.928 88.9283 16.168C89.1043 16.408 89.4243 16.632 89.8883 16.84C90.3523 17.032 91.0163 17.208 91.8803 17.368C93.0803 17.592 94.0243 17.888 94.7123 18.256C95.4163 18.624 95.9203 19.056 96.2243 19.552C96.5283 20.048 96.6803 20.608 96.6803 21.232C96.6803 21.968 96.4723 22.632 96.0563 23.224C95.6563 23.8 95.0723 24.256 94.3043 24.592C93.5363 24.928 92.6083 25.096 91.5203 25.096ZM105.897 25.096C104.569 25.096 103.393 24.816 102.369 24.256C101.361 23.68 100.569 22.896 99.9926 21.904C99.4166 20.896 99.1286 19.744 99.1286 18.448C99.1286 17.136 99.4006 15.984 99.9446 14.992C100.489 13.984 101.241 13.2 102.201 12.64C103.161 12.064 104.273 11.776 105.537 11.776C106.769 11.776 107.833 12.056 108.729 12.616C109.625 13.16 110.313 13.92 110.793 14.896C111.273 15.856 111.513 16.968 111.513 18.232C111.513 18.504 111.417 18.736 111.225 18.928C111.049 19.104 110.809 19.192 110.505 19.192H100.641V17.416H110.529L109.545 18.112C109.529 17.264 109.361 16.504 109.041 15.832C108.721 15.16 108.265 14.632 107.673 14.248C107.081 13.864 106.369 13.672 105.537 13.672C104.625 13.672 103.833 13.88 103.161 14.296C102.505 14.712 102.001 15.28 101.649 16C101.297 16.72 101.121 17.536 101.121 18.448C101.121 19.36 101.321 20.176 101.721 20.896C102.137 21.6 102.697 22.16 103.401 22.576C104.121 22.992 104.953 23.2 105.897 23.2C106.409 23.2 106.937 23.104 107.481 22.912C108.041 22.72 108.481 22.496 108.801 22.24C109.025 22.064 109.265 21.976 109.521 21.976C109.777 21.96 110.001 22.032 110.193 22.192C110.433 22.416 110.561 22.664 110.577 22.936C110.593 23.192 110.481 23.416 110.241 23.608C109.697 24.04 109.017 24.4 108.201 24.688C107.401 24.96 106.633 25.096 105.897 25.096Z" fill="#1283FF"/>
<mask id="mask1_8_75" style="mask-type:luminance" maskUnits="userSpaceOnUse" x="40" y="11" width="73" height="15">
<path d="M112.5 11H40.5V26H112.5V11Z" fill="white"/>
<path d="M47.3874 25.096C46.3314 25.096 45.3314 24.936 44.3874 24.616C43.4434 24.28 42.6994 23.824 42.1554 23.248C41.9474 23.008 41.8594 22.744 41.8914 22.456C41.9234 22.168 42.0674 21.92 42.3234 21.712C42.5954 21.504 42.8754 21.416 43.1634 21.448C43.4514 21.48 43.6914 21.608 43.8834 21.832C44.2034 22.184 44.6674 22.488 45.2754 22.744C45.8994 23 46.5794 23.128 47.3154 23.128C48.3554 23.128 49.1234 22.96 49.6194 22.624C50.1314 22.272 50.3954 21.84 50.4114 21.328C50.4114 20.8 50.1634 20.36 49.6674 20.008C49.1714 19.64 48.2994 19.352 47.0514 19.144C45.4354 18.84 44.2594 18.368 43.5234 17.728C42.7874 17.088 42.4194 16.312 42.4194 15.4C42.4194 14.584 42.6434 13.912 43.0914 13.384C43.5554 12.84 44.1554 12.44 44.8914 12.184C45.6434 11.912 46.4354 11.776 47.2674 11.776C48.3234 11.776 49.2514 11.952 50.0514 12.304C50.8514 12.64 51.4914 13.112 51.9714 13.72C52.1794 13.96 52.2674 14.208 52.2354 14.464C52.2194 14.72 52.0914 14.936 51.8514 15.112C51.6114 15.256 51.3314 15.304 51.0114 15.256C50.7074 15.208 50.4514 15.072 50.2434 14.848C49.8434 14.432 49.3954 14.144 48.8994 13.984C48.4194 13.808 47.8594 13.72 47.2194 13.72C46.4514 13.72 45.8114 13.864 45.2994 14.152C44.8034 14.44 44.5554 14.832 44.5554 15.328C44.5554 15.648 44.6354 15.928 44.7954 16.168C44.9714 16.408 45.2914 16.632 45.7554 16.84C46.2194 17.032 46.8834 17.208 47.7474 17.368C48.9474 17.592 49.8914 17.888 50.5794 18.256C51.2834 18.624 51.7874 19.056 52.0914 19.552C52.3954 20.048 52.5474 20.608 52.5474 21.232C52.5474 21.968 52.3394 22.632 51.9234 23.224C51.5234 23.8 50.9394 24.256 50.1714 24.592C49.4034 24.928 48.4754 25.096 47.3874 25.096ZM61.7638 25.096C60.4358 25.096 59.2598 24.816 58.2358 24.256C57.2278 23.68 56.4358 22.896 55.8598 21.904C55.2838 20.896 54.9958 19.744 54.9958 18.448C54.9958 17.136 55.2678 15.984 55.8118 14.992C56.3558 13.984 57.1078 13.2 58.0678 12.64C59.0278 12.064 60.1398 11.776 61.4038 11.776C62.6358 11.776 63.6998 12.056 64.5958 12.616C65.4918 13.16 66.1798 13.92 66.6598 14.896C67.1398 15.856 67.3798 16.968 67.3798 18.232C67.3798 18.504 67.2838 18.736 67.0918 18.928C66.9158 19.104 66.6758 19.192 66.3718 19.192H56.5078V17.416H66.3958L65.4118 18.112C65.3958 17.264 65.2278 16.504 64.9078 15.832C64.5878 15.16 64.1318 14.632 63.5398 14.248C62.9478 13.864 62.2358 13.672 61.4038 13.672C60.4918 13.672 59.6998 13.88 59.0278 14.296C58.3718 14.712 57.8678 15.28 57.5158 16C57.1638 16.72 56.9878 17.536 56.9878 18.448C56.9878 19.36 57.1878 20.176 57.5878 20.896C58.0038 21.6 58.5638 22.16 59.2678 22.576C59.9878 22.992 60.8198 23.2 61.7638 23.2C62.2758 23.2 62.8038 23.104 63.3478 22.912C63.9078 22.72 64.3478 22.496 64.6678 22.24C64.8918 22.064 65.1318 21.976 65.3878 21.976C65.6438 21.96 65.8678 22.032 66.0598 22.192C66.2998 22.416 66.4278 22.664 66.4438 22.936C66.4598 23.192 66.3478 23.416 66.1078 23.608C65.5638 24.04 64.8838 24.4 64.0678 24.688C63.2678 24.96 62.4998 25.096 61.7638 25.096ZM81.6638 25.024C81.3438 25.024 81.0718 24.92 80.8478 24.712C80.6398 24.488 80.5358 24.224 80.5358 23.92V17.872C80.5358 16.928 80.3598 16.16 80.0078 15.568C79.6558 14.96 79.1838 14.512 78.5918 14.224C77.9998 13.92 77.3198 13.768 76.5518 13.768C75.8318 13.768 75.1838 13.912 74.6078 14.2C74.0318 14.488 73.5678 14.872 73.2158 15.352C72.8798 15.832 72.7118 16.384 72.7118 17.008H71.2718C71.2878 16 71.5438 15.104 72.0398 14.32C72.5358 13.52 73.2078 12.896 74.0558 12.448C74.9038 11.984 75.8558 11.752 76.9118 11.752C78.0318 11.752 79.0318 11.992 79.9118 12.472C80.7918 12.936 81.4878 13.624 81.9998 14.536C82.5118 15.448 82.7678 16.56 82.7678 17.872V23.92C82.7678 24.224 82.6558 24.488 82.4318 24.712C82.2238 24.92 81.9678 25.024 81.6638 25.024ZM71.6078 25.024C71.2878 25.024 71.0238 24.92 70.8158 24.712C70.6078 24.504 70.5038 24.24 70.5038 23.92V12.976C70.5038 12.64 70.6078 12.376 70.8158 12.184C71.0238 11.976 71.2878 11.872 71.6078 11.872C71.9438 11.872 72.2078 11.976 72.3998 12.184C72.6078 12.376 72.7118 12.64 72.7118 12.976V23.92C72.7118 24.24 72.6078 24.504 72.3998 24.712C72.2078 24.92 71.9438 25.024 71.6078 25.024ZM91.5203 25.096C90.4643 25.096 89.4643 24.936 88.5203 24.616C87.5763 24.28 86.8323 23.824 86.2883 23.248C86.0803 23.008 85.9923 22.744 86.0243 22.456C86.0563 22.168 86.2003 21.92 86.4563 21.712C86.7283 21.504 87.0083 21.416 87.2963 21.448C87.5843 21.48 87.8243 21.608 88.0163 21.832C88.3363 22.184 88.8003 22.488 89.4083 22.744C90.0323 23 90.7123 23.128 91.4483 23.128C92.4883 23.128 93.2563 22.96 93.7523 22.624C94.2643 22.272 94.5283 21.84 94.5443 21.328C94.5443 20.8 94.2963 20.36 93.8003 20.008C93.3043 19.64 92.4323 19.352 91.1843 19.144C89.5683 18.84 88.3923 18.368 87.6562 17.728C86.9203 17.088 86.5523 16.312 86.5523 15.4C86.5523 14.584 86.7763 13.912 87.2243 13.384C87.6883 12.84 88.2883 12.44 89.0243 12.184C89.7763 11.912 90.5683 11.776 91.4003 11.776C92.4563 11.776 93.3843 11.952 94.1843 12.304C94.9843 12.64 95.6243 13.112 96.1043 13.72C96.3123 13.96 96.4003 14.208 96.3683 14.464C96.3523 14.72 96.2243 14.936 95.9843 15.112C95.7443 15.256 95.4643 15.304 95.1443 15.256C94.8403 15.208 94.5843 15.072 94.3763 14.848C93.9763 14.432 93.5283 14.144 93.0323 13.984C92.5523 13.808 91.9923 13.72 91.3523 13.72C90.5843 13.72 89.9443 13.864 89.4323 14.152C88.9363 14.44 88.6883 14.832 88.6883 15.328C88.6883 15.648 88.7683 15.928 88.9283 16.168C89.1043 16.408 89.4243 16.632 89.8883 16.84C90.3523 17.032 91.0163 17.208 91.8803 17.368C93.0803 17.592 94.0243 17.888 94.7123 18.256C95.4163 18.624 95.9203 19.056 96.2243 19.552C96.5283 20.048 96.6803 20.608 96.6803 21.232C96.6803 21.968 96.4723 22.632 96.0563 23.224C95.6563 23.8 95.0723 24.256 94.3043 24.592C93.5363 24.928 92.6083 25.096 91.5203 25.096ZM105.897 25.096C104.569 25.096 103.393 24.816 102.369 24.256C101.361 23.68 100.569 22.896 99.9926 21.904C99.4166 20.896 99.1286 19.744 99.1286 18.448C99.1286 17.136 99.4006 15.984 99.9446 14.992C100.489 13.984 101.241 13.2 102.201 12.64C103.161 12.064 104.273 11.776 105.537 11.776C106.769 11.776 107.833 12.056 108.729 12.616C109.625 13.16 110.313 13.92 110.793 14.896C111.273 15.856 111.513 16.968 111.513 18.232C111.513 18.504 111.417 18.736 111.225 18.928C111.049 19.104 110.809 19.192 110.505 19.192H100.641V17.416H110.529L109.545 18.112C109.529 17.264 109.361 16.504 109.041 15.832C108.721 15.16 108.265 14.632 107.673 14.248C107.081 13.864 106.369 13.672 105.537 13.672C104.625 13.672 103.833 13.88 103.161 14.296C102.505 14.712 102.001 15.28 101.649 16C101.297 16.72 101.121 17.536 101.121 18.448C101.121 19.36 101.321 20.176 101.721 20.896C102.137 21.6 102.697 22.16 103.401 22.576C104.121 22.992 104.953 23.2 105.897 23.2C106.409 23.2 106.937 23.104 107.481 22.912C108.041 22.72 108.481 22.496 108.801 22.24C109.025 22.064 109.265 21.976 109.521 21.976C109.777 21.96 110.001 22.032 110.193 22.192C110.433 22.416 110.561 22.664 110.577 22.936C110.593 23.192 110.481 23.416 110.241 23.608C109.697 24.04 109.017 24.4 108.201 24.688C107.401 24.96 106.633 25.096 105.897 25.096Z" fill="black"/>
</mask>
<g mask="url(#mask1_8_75)">
<path d="M44.3874 24.616L44.2533 24.9929L44.259 24.9948L44.3874 24.616ZM42.1554 23.248L41.8532 23.51L41.8588 23.5164L41.8646 23.5226L42.1554 23.248ZM42.3234 21.712L42.0804 21.3941L42.0712 21.4016L42.3234 21.712ZM43.8834 21.832L43.5796 22.0924L43.5875 22.1011L43.8834 21.832ZM45.2754 22.744L45.1202 23.1127L45.1236 23.1141L45.2754 22.744ZM49.6194 22.624L49.8438 22.9552L49.846 22.9536L49.6194 22.624ZM50.4114 21.328L50.8114 21.3405V21.328H50.4114ZM49.6674 20.008L49.429 20.3293L49.4359 20.3342L49.6674 20.008ZM47.0514 19.144L46.9775 19.5372L46.9857 19.5386L47.0514 19.144ZM43.0914 13.384L42.7871 13.1244L42.7864 13.1252L43.0914 13.384ZM44.8914 12.184L45.0229 12.5618L45.0275 12.5601L44.8914 12.184ZM50.0514 12.304L49.8903 12.6702L49.8965 12.6728L50.0514 12.304ZM51.9714 13.72L51.6575 13.9679L51.6632 13.975L51.6692 13.982L51.9714 13.72ZM52.2354 14.464L51.8385 14.4144L51.837 14.4267L51.8362 14.439L52.2354 14.464ZM51.8514 15.112L52.0572 15.455L52.0731 15.4455L52.088 15.4346L51.8514 15.112ZM51.0114 15.256L50.9491 15.6511L50.9521 15.6516L51.0114 15.256ZM50.2434 14.848L50.5366 14.5758L50.5318 14.5708L50.2434 14.848ZM48.8994 13.984L48.7617 14.3595L48.7691 14.3623L48.7766 14.3647L48.8994 13.984ZM45.2994 14.152L45.1033 13.8033L45.0986 13.8061L45.2994 14.152ZM44.7954 16.168L44.4626 16.3899L44.4676 16.3973L44.4729 16.4045L44.7954 16.168ZM45.7554 16.84L45.5917 17.2052L45.6025 17.2096L45.7554 16.84ZM50.5794 18.256L50.3908 18.6087L50.3941 18.6105L50.5794 18.256ZM51.9234 23.224L51.5962 22.994L51.5949 22.9958L51.9234 23.224ZM47.3874 25.096V24.696C46.3725 24.696 45.4161 24.5423 44.5159 24.2372L44.3874 24.616L44.259 24.9948C45.2468 25.3297 46.2904 25.496 47.3874 25.496V25.096ZM44.3874 24.616L44.5216 24.2392C43.6218 23.9189 42.9369 23.4928 42.4462 22.9734L42.1554 23.248L41.8646 23.5226C42.462 24.1552 43.2651 24.6412 44.2533 24.9929L44.3874 24.616ZM42.1554 23.248L42.4577 22.986C42.315 22.8213 42.2706 22.666 42.289 22.5002L41.8914 22.456L41.4939 22.4118C41.4483 22.822 41.5799 23.1947 41.8532 23.51L42.1554 23.248ZM41.8914 22.456L42.289 22.5002C42.3078 22.3313 42.389 22.1742 42.5757 22.0224L42.3234 21.712L42.0712 21.4016C41.7459 21.6658 41.5391 22.0047 41.4939 22.4118L41.8914 22.456ZM42.3234 21.712L42.5664 22.0297C42.7724 21.8722 42.952 21.827 43.1193 21.8456L43.1634 21.448L43.2076 21.0504C42.7989 21.005 42.4183 21.1356 42.0804 21.3941L42.3234 21.712ZM43.1634 21.448L43.1193 21.8456C43.3045 21.8661 43.4523 21.9439 43.5796 22.0924L43.8834 21.832L44.1871 21.5717C43.9305 21.2722 43.5984 21.0939 43.2076 21.0504L43.1634 21.448ZM43.8834 21.832L43.5875 22.1011C43.9586 22.5094 44.4781 22.8423 45.1202 23.1127L45.2754 22.744L45.4307 22.3753C44.8568 22.1337 44.4482 21.8586 44.1794 21.5629L43.8834 21.832ZM45.2754 22.744L45.1236 23.1141C45.8 23.3916 46.5321 23.528 47.3154 23.528V23.128V22.728C46.6267 22.728 45.9989 22.6084 45.4273 22.3739L45.2754 22.744ZM47.3154 23.128V23.528C48.3834 23.528 49.2487 23.3583 49.8438 22.9552L49.6194 22.624L49.3951 22.2928C48.9982 22.5617 48.3275 22.728 47.3154 22.728V23.128ZM49.6194 22.624L49.846 22.9536C50.4378 22.5468 50.7906 22.0074 50.8114 21.3405L50.4114 21.328L50.0116 21.3155C50.0005 21.6726 49.825 21.9972 49.3928 22.2944L49.6194 22.624ZM50.4114 21.328H50.8114C50.8114 20.6493 50.4822 20.0957 49.8989 19.6818L49.6674 20.008L49.4359 20.3342C49.8447 20.6243 50.0114 20.9507 50.0114 21.328H50.4114ZM49.6674 20.008L49.9058 19.6868C49.3287 19.2586 48.3753 18.9591 47.1172 18.7494L47.0514 19.144L46.9857 19.5386C48.2236 19.7449 49.0141 20.0215 49.429 20.3293L49.6674 20.008ZM47.0514 19.144L47.1254 18.7509C45.5369 18.4521 44.4431 17.9977 43.7859 17.4262L43.5234 17.728L43.261 18.0298C44.0757 18.7383 45.334 19.228 46.9775 19.5372L47.0514 19.144ZM43.5234 17.728L43.7859 17.4262C43.1304 16.8561 42.8194 16.1874 42.8194 15.4H42.4194H42.0194C42.0194 16.4366 42.4445 17.3199 43.261 18.0298L43.5234 17.728ZM42.4194 15.4H42.8194C42.8194 14.661 43.0204 14.086 43.3964 13.6428L43.0914 13.384L42.7864 13.1252C42.2665 13.738 42.0194 14.507 42.0194 15.4H42.4194ZM43.0914 13.384L43.3964 13.6428C43.8102 13.1576 44.3478 12.7966 45.0229 12.5618L44.8914 12.184L44.76 11.8062C43.9631 12.0834 43.3013 12.5216 42.7871 13.1244L43.0914 13.384ZM44.8914 12.184L45.0275 12.5601C45.7341 12.3046 46.4799 12.176 47.2674 12.176V11.776V11.376C46.3909 11.376 45.5528 11.5194 44.7554 11.8078L44.8914 12.184ZM47.2674 11.776V12.176C48.2793 12.176 49.1505 12.3447 49.8903 12.6702L50.0514 12.304L50.2125 11.9379C49.3523 11.5594 48.3676 11.376 47.2674 11.376V11.776ZM50.0514 12.304L49.8965 12.6728C50.6418 12.9858 51.2243 13.4191 51.6575 13.9679L51.9714 13.72L52.2854 13.4721C51.7586 12.8049 51.0611 12.2942 50.2063 11.9352L50.0514 12.304ZM51.9714 13.72L51.6692 13.982C51.8214 14.1576 51.8533 14.2963 51.8385 14.4144L52.2354 14.464L52.6323 14.5136C52.6816 14.1197 52.5375 13.7624 52.2737 13.458L51.9714 13.72ZM52.2354 14.464L51.8362 14.439C51.8288 14.557 51.7763 14.6711 51.6149 14.7894L51.8514 15.112L52.088 15.4346C52.4066 15.2009 52.61 14.883 52.6347 14.489L52.2354 14.464ZM51.8514 15.112L51.6456 14.769C51.4974 14.8579 51.3141 14.8969 51.0708 14.8604L51.0114 15.256L50.9521 15.6516C51.3488 15.7111 51.7255 15.6541 52.0572 15.455L51.8514 15.112ZM51.0114 15.256L51.0738 14.8609C50.8577 14.8268 50.6831 14.7337 50.5366 14.5758L50.2434 14.848L49.9503 15.1202C50.2197 15.4103 50.5572 15.5892 50.9491 15.6511L51.0114 15.256ZM50.2434 14.848L50.5318 14.5708C50.091 14.1123 49.5876 13.7857 49.0222 13.6033L48.8994 13.984L48.7766 14.3647C49.2032 14.5023 49.5959 14.7517 49.9551 15.1252L50.2434 14.848ZM48.8994 13.984L49.0371 13.6084C48.5035 13.4128 47.8951 13.32 47.2194 13.32V13.72V14.12C47.8238 14.12 48.3354 14.2032 48.7617 14.3595L48.8994 13.984ZM47.2194 13.72V13.32C46.4032 13.32 45.6908 13.4728 45.1033 13.8033L45.2994 14.152L45.4955 14.5006C45.932 14.2551 46.4996 14.12 47.2194 14.12V13.72ZM45.2994 14.152L45.0986 13.8061C44.5023 14.1523 44.1554 14.6647 44.1554 15.328H44.5554H44.9554C44.9554 14.9993 45.1046 14.7277 45.5003 14.4979L45.2994 14.152ZM44.5554 15.328H44.1554C44.1554 15.718 44.2541 16.0771 44.4626 16.3899L44.7954 16.168L45.1283 15.9461C45.0168 15.7789 44.9554 15.578 44.9554 15.328H44.5554ZM44.7954 16.168L44.4729 16.4045C44.7094 16.7271 45.1037 16.9865 45.5917 17.2052L45.7554 16.84L45.9191 16.475C45.479 16.2777 45.2335 16.0889 45.118 15.9315L44.7954 16.168ZM45.7554 16.84L45.6025 17.2096C46.1045 17.4174 46.8003 17.5994 47.6746 17.7613L47.7474 17.368L47.8208 16.9748C46.9671 16.8167 46.3343 16.6466 45.9084 16.4704L45.7554 16.84ZM47.7474 17.368L47.6746 17.7613C48.8544 17.9815 49.7533 18.2677 50.3908 18.6087L50.5794 18.256L50.7681 17.9033C50.0296 17.5083 49.0411 17.2026 47.8208 16.9748L47.7474 17.368ZM50.5794 18.256L50.3941 18.6105C51.0566 18.9568 51.4956 19.3453 51.7504 19.761L52.0914 19.552L52.4325 19.343C52.0793 18.7667 51.5103 18.2912 50.7647 17.9015L50.5794 18.256ZM52.0914 19.552L51.7504 19.761C52.013 20.1895 52.1474 20.6762 52.1474 21.232H52.5474H52.9474C52.9474 20.5398 52.7778 19.9065 52.4325 19.343L52.0914 19.552ZM52.5474 21.232H52.1474C52.1474 21.8872 51.964 22.4706 51.5962 22.994L51.9234 23.224L52.2507 23.454C52.7149 22.7934 52.9474 22.0488 52.9474 21.232H52.5474ZM51.9234 23.224L51.5949 22.9958C51.2447 23.5001 50.7247 23.9134 50.0111 24.2255L50.1714 24.592L50.3318 24.9585C51.1542 24.5986 51.8022 24.0999 52.252 23.4522L51.9234 23.224ZM50.1714 24.592L50.0111 24.2255C49.3063 24.5339 48.436 24.696 47.3874 24.696V25.096V25.496C48.5149 25.496 49.5006 25.3221 50.3318 24.9585L50.1714 24.592ZM58.2358 24.256L58.0373 24.6034L58.0439 24.6069L58.2358 24.256ZM55.8598 21.904L55.5125 22.1025L55.5139 22.1049L55.8598 21.904ZM55.8118 14.992L56.1625 15.1843L56.1638 15.182L55.8118 14.992ZM58.0678 12.64L58.2694 12.9855L58.2736 12.983L58.0678 12.64ZM64.5958 12.616L64.3838 12.9552L64.3882 12.9579L64.5958 12.616ZM66.6598 14.896L66.3009 15.0725L66.302 15.0749L66.6598 14.896ZM56.5078 19.192H56.1078V19.592H56.5078V19.192ZM56.5078 17.416V17.016H56.1078V17.416H56.5078ZM66.3958 17.416L66.6268 17.7426L67.654 17.016H66.3958V17.416ZM65.4118 18.112L65.0119 18.1195L65.0261 18.8747L65.6428 18.4386L65.4118 18.112ZM59.0278 14.296L58.8173 13.9559L58.8136 13.9582L59.0278 14.296ZM57.5878 20.896L57.238 21.0903L57.2434 21.0995L57.5878 20.896ZM59.2678 22.576L59.0643 22.9204L59.0677 22.9223L59.2678 22.576ZM63.3478 22.912L63.2181 22.5336L63.2147 22.5348L63.3478 22.912ZM64.6678 22.24L64.4207 21.9255L64.4179 21.9277L64.6678 22.24ZM65.3878 21.976V22.376H65.4003L65.4128 22.3752L65.3878 21.976ZM66.0598 22.192L66.3327 21.8996L66.3245 21.8919L66.3159 21.8847L66.0598 22.192ZM66.4438 22.936L66.0445 22.9595L66.0446 22.961L66.4438 22.936ZM66.1078 23.608L66.3566 23.9212L66.3577 23.9203L66.1078 23.608ZM64.0678 24.688L64.1966 25.0667L64.2009 25.0652L64.0678 24.688ZM61.7638 25.096V24.696C60.4935 24.696 59.3852 24.4287 58.4277 23.9051L58.2358 24.256L58.0439 24.6069C59.1344 25.2033 60.3781 25.496 61.7638 25.496V25.096ZM58.2358 24.256L58.4343 23.9087C57.4867 23.3672 56.7459 22.6334 56.2057 21.7031L55.8598 21.904L55.5139 22.1049C56.1257 23.1586 56.9688 23.9929 58.0373 24.6034L58.2358 24.256ZM55.8598 21.904L56.2071 21.7055C55.6695 20.7648 55.3958 19.6827 55.3958 18.448H54.9958H54.5958C54.5958 19.8053 54.8981 21.0272 55.5125 22.1025L55.8598 21.904ZM54.9958 18.448H55.3958C55.3958 17.1924 55.6557 16.1086 56.1625 15.1843L55.8118 14.992L55.4611 14.7997C54.8799 15.8594 54.5958 17.0796 54.5958 18.448H54.9958ZM55.8118 14.992L56.1638 15.182C56.674 14.2366 57.3749 13.5073 58.2694 12.9855L58.0678 12.64L57.8663 12.2945C56.8408 12.8927 56.0376 13.7314 55.4598 14.802L55.8118 14.992ZM58.0678 12.64L58.2736 12.983C59.1637 12.4489 60.2027 12.176 61.4038 12.176V11.776V11.376C60.0769 11.376 58.8919 11.6791 57.862 12.297L58.0678 12.64ZM61.4038 11.776V12.176C62.5735 12.176 63.5613 12.4411 64.3838 12.9552L64.5958 12.616L64.8078 12.2768C63.8383 11.6709 62.6981 11.376 61.4038 11.376V11.776ZM64.5958 12.616L64.3882 12.9579C65.2165 13.4608 65.8532 14.1622 66.3009 15.0725L66.6598 14.896L67.0188 14.7195C66.5064 13.6778 65.7671 12.8592 64.8034 12.2741L64.5958 12.616ZM66.6598 14.896L66.302 15.0749C66.7497 15.9703 66.9798 17.0191 66.9798 18.232H67.3798H67.7798C67.7798 16.9169 67.5299 15.7417 67.0176 14.7171L66.6598 14.896ZM67.3798 18.232H66.9798C66.9798 18.3981 66.9258 18.5283 66.809 18.6452L67.0918 18.928L67.3747 19.2108C67.6418 18.9437 67.7798 18.6099 67.7798 18.232H67.3798ZM67.0918 18.928L66.809 18.6452C66.724 18.7301 66.5947 18.792 66.3718 18.792V19.192V19.592C66.7569 19.592 67.1076 19.4779 67.3747 19.2108L67.0918 18.928ZM66.3718 19.192V18.792H56.5078V19.192V19.592H66.3718V19.192ZM56.5078 19.192H56.9078V17.416H56.5078H56.1078V19.192H56.5078ZM56.5078 17.416V17.816H66.3958V17.416V17.016H56.5078V17.416ZM66.3958 17.416L66.1648 17.0894L65.1808 17.7854L65.4118 18.112L65.6428 18.4386L66.6268 17.7426L66.3958 17.416ZM65.4118 18.112L65.8117 18.1045C65.7948 17.2074 65.6166 16.3902 65.269 15.66L64.9078 15.832L64.5467 16.004C64.839 16.6178 64.9968 17.3206 65.0119 18.1195L65.4118 18.112ZM64.9078 15.832L65.269 15.66C64.919 14.9251 64.415 14.3389 63.7575 13.9124L63.5398 14.248L63.3221 14.5836C63.8487 14.9251 64.2566 15.3949 64.5467 16.004L64.9078 15.832ZM63.5398 14.248L63.7575 13.9124C63.0898 13.4793 62.299 13.272 61.4038 13.272V13.672V14.072C62.1726 14.072 62.8058 14.2487 63.3221 14.5836L63.5398 14.248ZM61.4038 13.672V13.272C60.4291 13.272 59.5618 13.495 58.8173 13.9559L59.0278 14.296L59.2384 14.6361C59.8379 14.265 60.5545 14.072 61.4038 14.072V13.672ZM59.0278 14.296L58.8136 13.9582C58.0931 14.4151 57.5398 15.0401 57.1565 15.8243L57.5158 16L57.8752 16.1757C58.1958 15.5199 58.6505 15.0089 59.242 14.6338L59.0278 14.296ZM57.5158 16L57.1565 15.8243C56.7742 16.6061 56.5878 17.4835 56.5878 18.448H56.9878H57.3878C57.3878 17.5885 57.5534 16.8339 57.8752 16.1757L57.5158 16ZM56.9878 18.448H56.5878C56.5878 19.4205 56.8016 20.3046 57.238 21.0903L57.5878 20.896L57.9375 20.7017C57.5739 20.0474 57.3878 19.2995 57.3878 18.448H56.9878ZM57.5878 20.896L57.2434 21.0995C57.6938 21.8616 58.3022 22.47 59.0643 22.9204L59.2678 22.576L59.4713 22.2316C58.8254 21.85 58.3139 21.3384 57.9322 20.6925L57.5878 20.896ZM59.2678 22.576L59.0677 22.9223C59.8564 23.378 60.7592 23.6 61.7638 23.6V23.2V22.8C60.8804 22.8 60.1192 22.606 59.4679 22.2297L59.2678 22.576ZM61.7638 23.2V23.6C62.3265 23.6 62.8995 23.4944 63.4809 23.2892L63.3478 22.912L63.2147 22.5348C62.7081 22.7136 62.2251 22.8 61.7638 22.8V23.2ZM63.3478 22.912L63.4775 23.2904C64.0634 23.0895 64.5496 22.8468 64.9177 22.5523L64.6678 22.24L64.4179 21.9277C64.146 22.1452 63.7522 22.3505 63.2181 22.5336L63.3478 22.912ZM64.6678 22.24L64.9149 22.5545C65.0769 22.4273 65.2316 22.376 65.3878 22.376V21.976V21.576C65.032 21.576 64.7067 21.7007 64.4207 21.9255L64.6678 22.24ZM65.3878 21.976L65.4128 22.3752C65.5698 22.3654 65.6925 22.4066 65.8037 22.4993L66.0598 22.192L66.3159 21.8847C66.0431 21.6574 65.7179 21.5546 65.3629 21.5768L65.3878 21.976ZM66.0598 22.192L65.7869 22.4844C65.9681 22.6536 66.0357 22.8103 66.0445 22.9595L66.4438 22.936L66.8431 22.9125C66.8199 22.5177 66.6315 22.1784 66.3327 21.8996L66.0598 22.192ZM66.4438 22.936L66.0446 22.961C66.0508 23.0601 66.0191 23.1667 65.8579 23.2957L66.1078 23.608L66.3577 23.9203C66.6765 23.6653 66.8688 23.3239 66.843 22.911L66.4438 22.936ZM66.1078 23.608L65.8591 23.2948C65.3571 23.6934 64.7187 24.0341 63.9347 24.3108L64.0678 24.688L64.2009 25.0652C65.0489 24.7659 65.7705 24.3866 66.3566 23.9212L66.1078 23.608ZM64.0678 24.688L63.9391 24.3093C63.1745 24.5692 62.4501 24.696 61.7638 24.696V25.096V25.496C62.5496 25.496 63.3611 25.3508 64.1966 25.0667L64.0678 24.688ZM80.8478 24.712L80.5546 24.9842L80.5647 24.995L80.5756 25.0051L80.8478 24.712ZM80.0078 15.568L79.6616 15.7684L79.6639 15.7724L80.0078 15.568ZM78.5918 14.224L78.409 14.5799L78.4168 14.5837L78.5918 14.224ZM73.2158 15.352L72.8931 15.1154L72.8881 15.1226L73.2158 15.352ZM72.7118 17.008V17.408H73.1118V17.008H72.7118ZM71.2718 17.008L70.8718 17.0017L70.8654 17.408H71.2718V17.008ZM72.0398 14.32L72.3778 14.5339L72.3797 14.5308L72.0398 14.32ZM74.0558 12.448L74.2426 12.8017L74.2478 12.7989L74.0558 12.448ZM79.9118 12.472L79.7202 12.8232L79.7252 12.8258L79.9118 12.472ZM70.8158 12.184L71.0871 12.4779L71.0929 12.4725L71.0986 12.4668L70.8158 12.184ZM72.3998 12.184L72.1058 12.4553L72.1167 12.4671L72.1284 12.4779L72.3998 12.184ZM72.3998 24.712L72.1169 24.4292L72.1113 24.4348L72.1058 24.4407L72.3998 24.712ZM81.6638 25.024V24.624C81.4395 24.624 81.2662 24.5547 81.1199 24.4189L80.8478 24.712L80.5756 25.0051C80.8773 25.2853 81.248 25.424 81.6638 25.424V25.024ZM80.8478 24.712L81.1409 24.4398C81.0011 24.2894 80.9358 24.1224 80.9358 23.92H80.5358H80.1358C80.1358 24.3256 80.2784 24.6866 80.5546 24.9842L80.8478 24.712ZM80.5358 23.92H80.9358V17.872H80.5358H80.1358V23.92H80.5358ZM80.5358 17.872H80.9358C80.9358 16.8816 80.7515 16.0362 80.3516 15.3636L80.0078 15.568L79.6639 15.7724C79.968 16.2838 80.1358 16.9744 80.1358 17.872H80.5358ZM80.0078 15.568L80.3539 15.3676C79.9648 14.6955 79.4353 14.1895 78.7667 13.8643L78.5918 14.224L78.4168 14.5837C78.9322 14.8345 79.3467 15.2245 79.6616 15.7684L80.0078 15.568ZM78.5918 14.224L78.7745 13.8682C78.1178 13.531 77.3735 13.368 76.5518 13.368V13.768V14.168C77.266 14.168 77.8817 14.3091 78.409 14.5799L78.5918 14.224ZM76.5518 13.768V13.368C75.7771 13.368 75.0667 13.5233 74.4289 13.8422L74.6078 14.2L74.7866 14.5578C75.3008 14.3007 75.8864 14.168 76.5518 14.168V13.768ZM74.6078 14.2L74.4289 13.8422C73.8008 14.1563 73.2857 14.58 72.8931 15.1154L73.2158 15.352L73.5383 15.5885C73.8497 15.1639 74.2627 14.8197 74.7866 14.5578L74.6078 14.2ZM73.2158 15.352L72.8881 15.1226C72.5019 15.6743 72.3118 16.3076 72.3118 17.008H72.7118H73.1118C73.1118 16.4604 73.2576 15.9897 73.5434 15.5814L73.2158 15.352ZM72.7118 17.008V16.608H71.2718V17.008V17.408H72.7118V17.008ZM71.2718 17.008L71.6717 17.0143C71.6866 16.0733 71.9245 15.2503 72.3778 14.5339L72.0398 14.32L71.7017 14.1061C71.163 14.9577 70.8889 15.9267 70.8718 17.0017L71.2718 17.008ZM72.0398 14.32L72.3797 14.5308C72.8375 13.7923 73.4562 13.2171 74.2426 12.8017L74.0558 12.448L73.8689 12.0943C72.9593 12.5749 72.234 13.2476 71.6998 14.1092L72.0398 14.32ZM74.0558 12.448L74.2478 12.7989C75.0316 12.37 75.9165 12.152 76.9118 12.152V11.752V11.352C75.795 11.352 74.7759 11.598 73.8637 12.0971L74.0558 12.448ZM76.9118 11.752V12.152C77.9728 12.152 78.9056 12.3788 79.7202 12.8232L79.9118 12.472L80.1033 12.1208C79.1579 11.6052 78.0907 11.352 76.9118 11.352V11.752ZM79.9118 12.472L79.7252 12.8258C80.5334 13.252 81.1746 13.8834 81.651 14.7318L81.9998 14.536L82.3485 14.3402C81.8009 13.3646 81.0501 12.62 80.0983 12.1182L79.9118 12.472ZM81.9998 14.536L81.651 14.7318C82.1219 15.5706 82.3678 16.6114 82.3678 17.872H82.7678H83.1678C83.1678 16.5086 82.9016 15.3254 82.3485 14.3402L81.9998 14.536ZM82.7678 17.872H82.3678V23.92H82.7678H83.1678V17.872H82.7678ZM82.7678 23.92H82.3678C82.3678 24.113 82.3014 24.2767 82.1489 24.4292L82.4318 24.712L82.7146 24.9948C83.0101 24.6993 83.1678 24.335 83.1678 23.92H82.7678ZM82.4318 24.712L82.1489 24.4292C82.0187 24.5594 81.8656 24.624 81.6638 24.624V25.024V25.424C82.0699 25.424 82.4288 25.2806 82.7146 24.9948L82.4318 24.712ZM71.6078 25.024V24.624C71.3836 24.624 71.2246 24.5552 71.0986 24.4292L70.8158 24.712L70.5329 24.9948C70.8229 25.2848 71.1919 25.424 71.6078 25.424V25.024ZM70.8158 24.712L71.0986 24.4292C70.9726 24.3031 70.9038 24.1442 70.9038 23.92H70.5038H70.1038C70.1038 24.3358 70.2429 24.7049 70.5329 24.9948L70.8158 24.712ZM70.5038 23.92H70.9038V12.976H70.5038H70.1038V23.92H70.5038ZM70.5038 12.976H70.9038C70.9038 12.7289 70.9764 12.5801 71.0871 12.4779L70.8158 12.184L70.5444 11.8901C70.2391 12.1719 70.1038 12.5511 70.1038 12.976H70.5038ZM70.8158 12.184L71.0986 12.4668C71.2246 12.3408 71.3836 12.272 71.6078 12.272V11.872V11.472C71.1919 11.472 70.8229 11.6112 70.5329 11.9012L70.8158 12.184ZM71.6078 11.872V12.272C71.8548 12.272 72.0037 12.3447 72.1058 12.4553L72.3998 12.184L72.6937 11.9127C72.4118 11.6073 72.0327 11.472 71.6078 11.472V11.872ZM72.3998 12.184L72.1284 12.4779C72.2391 12.5801 72.3118 12.7289 72.3118 12.976H72.7118H73.1118C73.1118 12.5511 72.9764 12.1719 72.6711 11.8901L72.3998 12.184ZM72.7118 12.976H72.3118V23.92H72.7118H73.1118V12.976H72.7118ZM72.7118 23.92H72.3118C72.3118 24.1442 72.2429 24.3031 72.1169 24.4292L72.3998 24.712L72.6826 24.9948C72.9726 24.7049 73.1118 24.3358 73.1118 23.92H72.7118ZM72.3998 24.712L72.1058 24.4407C72.0037 24.5513 71.8548 24.624 71.6078 24.624V25.024V25.424C72.0327 25.424 72.4118 25.2887 72.6937 24.9833L72.3998 24.712ZM88.5203 24.616L88.3861 24.9929L88.3918 24.9948L88.5203 24.616ZM86.2883 23.248L85.986 23.51L85.9916 23.5164L85.9974 23.5226L86.2883 23.248ZM86.4563 21.712L86.2132 21.3941L86.204 21.4016L86.4563 21.712ZM88.0163 21.832L87.7124 22.0924L87.7203 22.1011L88.0163 21.832ZM89.4083 22.744L89.253 23.1127L89.2564 23.1141L89.4083 22.744ZM93.7523 22.624L93.9766 22.9552L93.9789 22.9536L93.7523 22.624ZM94.5443 21.328L94.9443 21.3405V21.328H94.5443ZM93.8003 20.008L93.5619 20.3293L93.5688 20.3342L93.8003 20.008ZM91.1843 19.144L91.1103 19.5372L91.1185 19.5386L91.1843 19.144ZM87.2243 13.384L86.9199 13.1244L86.9192 13.1252L87.2243 13.384ZM89.0243 12.184L89.1557 12.5618L89.1603 12.5601L89.0243 12.184ZM94.1843 12.304L94.0231 12.6702L94.0294 12.6728L94.1843 12.304ZM96.1043 13.72L95.7903 13.9679L95.796 13.975L95.802 13.982L96.1043 13.72ZM96.3683 14.464L95.9713 14.4144L95.9698 14.4267L95.969 14.439L96.3683 14.464ZM95.9843 15.112L96.19 15.455L96.2059 15.4455L96.2208 15.4346L95.9843 15.112ZM95.1443 15.256L95.0819 15.6511L95.0849 15.6516L95.1443 15.256ZM94.3763 14.848L94.6694 14.5758L94.6646 14.5708L94.3763 14.848ZM93.0323 13.984L92.8945 14.3595L92.9019 14.3623L92.9094 14.3647L93.0323 13.984ZM89.4323 14.152L89.2361 13.8033L89.2314 13.8061L89.4323 14.152ZM88.9283 16.168L88.5954 16.3899L88.6004 16.3973L88.6057 16.4045L88.9283 16.168ZM89.8883 16.84L89.7246 17.2052L89.7353 17.2096L89.8883 16.84ZM94.7123 18.256L94.5236 18.6087L94.5269 18.6105L94.7123 18.256ZM96.0563 23.224L95.729 22.994L95.7277 22.9958L96.0563 23.224ZM91.5203 25.096V24.696C90.5053 24.696 89.5489 24.5423 88.6487 24.2372L88.5203 24.616L88.3918 24.9948C89.3796 25.3297 90.4232 25.496 91.5203 25.496V25.096ZM88.5203 24.616L88.6544 24.2392C87.7546 23.9189 87.0697 23.4928 86.5791 22.9734L86.2883 23.248L85.9974 23.5226C86.5948 24.1552 87.3979 24.6412 88.3861 24.9929L88.5203 24.616ZM86.2883 23.248L86.5905 22.986C86.4478 22.8213 86.4034 22.666 86.4218 22.5002L86.0243 22.456L85.6267 22.4118C85.5811 22.822 85.7127 23.1947 85.986 23.51L86.2883 23.248ZM86.0243 22.456L86.4218 22.5002C86.4406 22.3313 86.5218 22.1742 86.7085 22.0224L86.4563 21.712L86.204 21.4016C85.8787 21.6658 85.6719 22.0047 85.6267 22.4118L86.0243 22.456ZM86.4563 21.712L86.6992 22.0297C86.9053 21.8722 87.0848 21.827 87.2521 21.8456L87.2963 21.448L87.3404 21.0504C86.9317 21.005 86.5511 21.1356 86.2132 21.3941L86.4563 21.712ZM87.2963 21.448L87.2521 21.8456C87.4373 21.8661 87.5851 21.9439 87.7124 22.0924L88.0163 21.832L88.32 21.5717C88.0633 21.2722 87.7312 21.0939 87.3404 21.0504L87.2963 21.448ZM88.0163 21.832L87.7203 22.1011C88.0915 22.5094 88.6109 22.8423 89.253 23.1127L89.4083 22.744L89.5635 22.3753C88.9896 22.1337 88.581 21.8586 88.3122 21.5629L88.0163 21.832ZM89.4083 22.744L89.2564 23.1141C89.9328 23.3916 90.665 23.528 91.4483 23.528V23.128V22.728C90.7595 22.728 90.1317 22.6084 89.5601 22.3739L89.4083 22.744ZM91.4483 23.128V23.528C92.5162 23.528 93.3815 23.3583 93.9766 22.9552L93.7523 22.624L93.5279 22.2928C93.131 22.5617 92.4603 22.728 91.4483 22.728V23.128ZM93.7523 22.624L93.9789 22.9536C94.5706 22.5468 94.9234 22.0074 94.9443 21.3405L94.5443 21.328L94.1444 21.3155C94.1333 21.6726 93.9579 21.9972 93.5256 22.2944L93.7523 22.624ZM94.5443 21.328H94.9443C94.9443 20.6493 94.615 20.0957 94.0317 19.6818L93.8003 20.008L93.5688 20.3342C93.9775 20.6243 94.1443 20.9507 94.1443 21.328H94.5443ZM93.8003 20.008L94.0386 19.6868C93.4615 19.2586 92.5081 18.9591 91.25 18.7494L91.1843 19.144L91.1185 19.5386C92.3564 19.7449 93.147 20.0215 93.5619 20.3293L93.8003 20.008ZM91.1843 19.144L91.2582 18.7509C89.6697 18.4521 88.576 17.9977 87.9187 17.4262L87.6562 17.728L87.3938 18.0298C88.2085 18.7383 89.4668 19.228 91.1103 19.5372L91.1843 19.144ZM87.6562 17.728L87.9187 17.4262C87.2632 16.8561 86.9523 16.1874 86.9523 15.4H86.5523H86.1523C86.1523 16.4366 86.5773 17.3199 87.3938 18.0298L87.6562 17.728ZM86.5523 15.4H86.9523C86.9523 14.661 87.1532 14.086 87.5293 13.6428L87.2243 13.384L86.9192 13.1252C86.3993 13.738 86.1523 14.507 86.1523 15.4H86.5523ZM87.2243 13.384L87.5286 13.6436C87.9424 13.1584 88.4806 12.7966 89.1557 12.5618L89.0243 12.184L88.8928 11.8062C88.0959 12.0834 87.4341 12.5216 86.9199 13.1244L87.2243 13.384ZM89.0243 12.184L89.1603 12.5601C89.8669 12.3046 90.6127 12.176 91.4003 12.176V11.776V11.376C90.5238 11.376 89.6856 11.5194 88.8882 11.8078L89.0243 12.184ZM91.4003 11.776V12.176C92.4121 12.176 93.2832 12.3447 94.0231 12.6702L94.1843 12.304L94.3453 11.9379C93.4852 11.5594 92.5004 11.376 91.4003 11.376V11.776ZM94.1843 12.304L94.0294 12.6728C94.7746 12.9858 95.3571 13.4191 95.7903 13.9679L96.1043 13.72L96.4182 13.4721C95.8914 12.8049 95.1939 12.2942 94.3391 11.9352L94.1843 12.304ZM96.1043 13.72L95.802 13.982C95.9542 14.1576 95.9861 14.2963 95.9713 14.4144L96.3683 14.464L96.7652 14.5136C96.8144 14.1197 96.6703 13.7624 96.4065 13.458L96.1043 13.72ZM96.3683 14.464L95.969 14.439C95.9617 14.557 95.9091 14.6711 95.7477 14.7894L95.9843 15.112L96.2208 15.4346C96.5394 15.2009 96.7428 14.883 96.7675 14.489L96.3683 14.464ZM95.9843 15.112L95.7785 14.769C95.6302 14.8579 95.4469 14.8969 95.2036 14.8604L95.1443 15.256L95.0849 15.6516C95.4816 15.7111 95.8583 15.6541 96.19 15.455L95.9843 15.112ZM95.1443 15.256L95.2066 14.8609C94.9905 14.8268 94.8159 14.7337 94.6694 14.5758L94.3763 14.848L94.0831 15.1202C94.3526 15.4103 94.69 15.5892 95.0819 15.6511L95.1443 15.256ZM94.3763 14.848L94.6646 14.5708C94.2238 14.1123 93.7205 13.7857 93.1551 13.6033L93.0323 13.984L92.9094 14.3647C93.336 14.5023 93.7287 14.7517 94.0879 15.1252L94.3763 14.848ZM93.0323 13.984L93.17 13.6084C92.6363 13.4128 92.0279 13.32 91.3523 13.32V13.72V14.12C91.9566 14.12 92.4682 14.2032 92.8945 14.3595L93.0323 13.984ZM91.3523 13.72V13.32C90.5361 13.32 89.8237 13.4728 89.2361 13.8033L89.4323 14.152L89.6284 14.5006C90.0648 14.2551 90.6324 14.12 91.3523 14.12V13.72ZM89.4323 14.152L89.2314 13.8061C88.6351 14.1523 88.2883 14.6647 88.2883 15.328H88.6883H89.0883C89.0883 14.9993 89.2374 14.7277 89.6331 14.4979L89.4323 14.152ZM88.6883 15.328H88.2883C88.2883 15.718 88.3869 16.0771 88.5954 16.3899L88.9283 16.168L89.2611 15.9461C89.1496 15.7789 89.0883 15.578 89.0883 15.328H88.6883ZM88.9283 16.168L88.6057 16.4045C88.8422 16.7271 89.2367 16.9865 89.7246 17.2052L89.8883 16.84L90.0519 16.475C89.6118 16.2777 89.3663 16.0889 89.2508 15.9315L88.9283 16.168ZM89.8883 16.84L89.7353 17.2096C90.2374 17.4174 90.9331 17.5994 91.8074 17.7613L91.8803 17.368L91.9536 16.9748C91.0999 16.8167 90.4671 16.6466 90.0412 16.4704L89.8883 16.84ZM91.8803 17.368L91.8074 17.7613C92.9871 17.9815 93.8861 18.2677 94.5236 18.6087L94.7123 18.256L94.9009 17.9033C94.1624 17.5083 93.1739 17.2026 91.9536 16.9748L91.8803 17.368ZM94.7123 18.256L94.5269 18.6105C95.1894 18.9568 95.6284 19.3453 95.8832 19.761L96.2243 19.552L96.5653 19.343C96.2121 18.7667 95.6431 18.2912 94.8976 17.9015L94.7123 18.256ZM96.2243 19.552L95.8832 19.761C96.1458 20.1895 96.2803 20.6762 96.2803 21.232H96.6803H97.0803C97.0803 20.5398 96.9107 19.9065 96.5653 19.343L96.2243 19.552ZM96.6803 21.232H96.2803C96.2803 21.8872 96.0968 22.4706 95.729 22.994L96.0563 23.224L96.3835 23.454C96.8477 22.7934 97.0803 22.0488 97.0803 21.232H96.6803ZM96.0563 23.224L95.7277 22.9958C95.3775 23.5001 94.8575 23.9134 94.1439 24.2255L94.3043 24.592L94.4646 24.9585C95.287 24.5986 95.935 24.0999 96.3848 23.4522L96.0563 23.224ZM94.3043 24.592L94.1439 24.2255C93.4391 24.5339 92.5688 24.696 91.5203 24.696V25.096V25.496C92.6477 25.496 93.6334 25.3221 94.4646 24.9585L94.3043 24.592ZM102.369 24.256L102.17 24.6034L102.177 24.6069L102.369 24.256ZM99.9926 21.904L99.6453 22.1025L99.6467 22.1049L99.9926 21.904ZM99.9446 14.992L100.295 15.1843L100.297 15.182L99.9446 14.992ZM102.201 12.64L102.402 12.9855L102.406 12.983L102.201 12.64ZM108.729 12.616L108.517 12.9552L108.521 12.9579L108.729 12.616ZM110.793 14.896L110.434 15.0725L110.435 15.0749L110.793 14.896ZM100.641 19.192H100.241V19.592H100.641V19.192ZM100.641 17.416V17.016H100.241V17.416H100.641ZM110.529 17.416L110.76 17.7426L111.787 17.016H110.529V17.416ZM109.545 18.112L109.145 18.1195L109.159 18.8747L109.776 18.4386L109.545 18.112ZM103.161 14.296L102.95 13.9559L102.946 13.9582L103.161 14.296ZM101.721 20.896L101.371 21.0903L101.376 21.0995L101.721 20.896ZM103.401 22.576L103.197 22.9204L103.201 22.9223L103.401 22.576ZM107.481 22.912L107.351 22.5336L107.347 22.5348L107.481 22.912ZM108.801 22.24L108.553 21.9255L108.551 21.9277L108.801 22.24ZM109.521 21.976V22.376H109.533L109.546 22.3752L109.521 21.976ZM110.193 22.192L110.466 21.8996L110.457 21.8919L110.449 21.8847L110.193 22.192ZM110.577 22.936L110.177 22.9595V22.961L110.577 22.936ZM110.241 23.608L110.489 23.9212L110.491 23.9203L110.241 23.608ZM108.201 24.688L108.329 25.0667L108.334 25.0652L108.201 24.688ZM105.897 25.096V24.696C104.626 24.696 103.518 24.4287 102.561 23.9051L102.369 24.256L102.177 24.6069C103.267 25.2033 104.511 25.496 105.897 25.496V25.096ZM102.369 24.256L102.567 23.9087C101.62 23.3672 100.879 22.6334 100.339 21.7031L99.9926 21.904L99.6467 22.1049C100.259 23.1586 101.102 23.9929 102.17 24.6034L102.369 24.256ZM99.9926 21.904L100.34 21.7055C99.8023 20.7648 99.5286 19.6827 99.5286 18.448H99.1286H98.7286C98.7286 19.8053 99.0309 21.0272 99.6453 22.1025L99.9926 21.904ZM99.1286 18.448H99.5286C99.5286 17.1924 99.7885 16.1086 100.295 15.1843L99.9446 14.992L99.5939 14.7997C99.0127 15.8594 98.7286 17.0796 98.7286 18.448H99.1286ZM99.9446 14.992L100.297 15.182C100.807 14.2366 101.508 13.5073 102.402 12.9855L102.201 12.64L101.999 12.2945C100.974 12.8927 100.17 13.7314 99.5926 14.802L99.9446 14.992ZM102.201 12.64L102.406 12.983C103.297 12.4489 104.336 12.176 105.537 12.176V11.776V11.376C104.21 11.376 103.025 11.6791 101.995 12.297L102.201 12.64ZM105.537 11.776V12.176C106.706 12.176 107.694 12.4411 108.517 12.9552L108.729 12.616L108.941 12.2768C107.971 11.6709 106.831 11.376 105.537 11.376V11.776ZM108.729 12.616L108.521 12.9579C109.349 13.4608 109.986 14.1622 110.434 15.0725L110.793 14.896L111.152 14.7195C110.639 13.6778 109.9 12.8592 108.936 12.2741L108.729 12.616ZM110.793 14.896L110.435 15.0749C110.883 15.9703 111.113 17.0191 111.113 18.232H111.513H111.913C111.913 16.9169 111.663 15.7417 111.15 14.7171L110.793 14.896ZM111.513 18.232H111.113C111.113 18.3981 111.059 18.5283 110.942 18.6452L111.225 18.928L111.507 19.2108C111.775 18.9437 111.913 18.6099 111.913 18.232H111.513ZM111.225 18.928L110.942 18.6452C110.857 18.7301 110.728 18.792 110.505 18.792V19.192V19.592C110.89 19.592 111.24 19.4779 111.507 19.2108L111.225 18.928ZM110.505 19.192V18.792H100.641V19.192V19.592H110.505V19.192ZM100.641 19.192H101.041V17.416H100.641H100.241V19.192H100.641ZM100.641 17.416V17.816H110.529V17.416V17.016H100.641V17.416ZM110.529 17.416L110.298 17.0894L109.314 17.7854L109.545 18.112L109.776 18.4386L110.76 17.7426L110.529 17.416ZM109.545 18.112L109.945 18.1045C109.928 17.2074 109.749 16.3902 109.402 15.66L109.041 15.832L108.679 16.004C108.972 16.6178 109.13 17.3206 109.145 18.1195L109.545 18.112ZM109.041 15.832L109.402 15.66C109.052 14.9251 108.548 14.3389 107.89 13.9124L107.673 14.248L107.455 14.5836C107.981 14.9251 108.389 15.3949 108.679 16.004L109.041 15.832ZM107.673 14.248L107.89 13.9124C107.223 13.4793 106.432 13.272 105.537 13.272V13.672V14.072C106.305 14.072 106.939 14.2487 107.455 14.5836L107.673 14.248ZM105.537 13.672V13.272C104.562 13.272 103.695 13.495 102.95 13.9559L103.161 14.296L103.371 14.6361C103.971 14.265 104.687 14.072 105.537 14.072V13.672ZM103.161 14.296L102.946 13.9582C102.226 14.4151 101.673 15.0401 101.289 15.8243L101.649 16L102.008 16.1757C102.329 15.5199 102.783 15.0089 103.375 14.6338L103.161 14.296ZM101.649 16L101.289 15.8243C100.907 16.6061 100.721 17.4835 100.721 18.448H101.121H101.521C101.521 17.5885 101.686 16.8339 102.008 16.1757L101.649 16ZM101.121 18.448H100.721C100.721 19.4205 100.935 20.3046 101.371 21.0903L101.721 20.896L102.07 20.7017C101.707 20.0474 101.521 19.2995 101.521 18.448H101.121ZM101.721 20.896L101.376 21.0995C101.827 21.8616 102.435 22.47 103.197 22.9204L103.401 22.576L103.604 22.2316C102.958 21.85 102.447 21.3384 102.065 20.6925L101.721 20.896ZM103.401 22.576L103.201 22.9223C103.989 23.378 104.892 23.6 105.897 23.6V23.2V22.8C105.013 22.8 104.252 22.606 103.601 22.2297L103.401 22.576ZM105.897 23.2V23.6C106.459 23.6 107.032 23.4944 107.614 23.2892L107.481 22.912L107.347 22.5348C106.841 22.7136 106.358 22.8 105.897 22.8V23.2ZM107.481 22.912L107.61 23.2904C108.196 23.0895 108.682 22.8468 109.051 22.5523L108.801 22.24L108.551 21.9277C108.279 22.1452 107.885 22.3505 107.351 22.5336L107.481 22.912ZM108.801 22.24L109.048 22.5545C109.21 22.4273 109.364 22.376 109.521 22.376V21.976V21.576C109.165 21.576 108.84 21.7007 108.553 21.9255L108.801 22.24ZM109.521 21.976L109.546 22.3752C109.703 22.3654 109.825 22.4066 109.937 22.4993L110.193 22.192L110.449 21.8847C110.176 21.6574 109.851 21.5546 109.496 21.5768L109.521 21.976ZM110.193 22.192L109.92 22.4844C110.101 22.6536 110.169 22.8103 110.177 22.9595L110.577 22.936L110.976 22.9125C110.953 22.5177 110.764 22.1784 110.466 21.8996L110.193 22.192ZM110.577 22.936L110.177 22.961C110.184 23.0601 110.152 23.1667 109.991 23.2957L110.241 23.608L110.491 23.9203C110.809 23.6653 111.002 23.3239 110.976 22.911L110.577 22.936ZM110.241 23.608L109.992 23.2948C109.49 23.6934 108.852 24.0341 108.067 24.3108L108.201 24.688L108.334 25.0652C109.182 24.7659 109.903 24.3866 110.489 23.9212L110.241 23.608ZM108.201 24.688L108.072 24.3093C107.307 24.5692 106.583 24.696 105.897 24.696V25.096V25.496C106.682 25.496 107.494 25.3508 108.329 25.0667L108.201 24.688Z" fill="#1283FF"/>
</g>
</svg>
