<svg width="21" height="20" viewBox="0 0 21 20" fill="none" xmlns="http://www.w3.org/2000/svg">
<path d="M10.4999 10.8333V17.5M10.4999 17.5L7.16661 14.1667M10.4999 17.5L13.8333 14.1667M4.16078 12.7242C3.48016 12.1288 2.94729 11.3833 2.60425 10.5466C2.2612 9.70991 2.11738 8.80492 2.18413 7.9031C2.25088 7.00128 2.52638 6.12733 2.98887 5.35027C3.45136 4.5732 4.08818 3.9143 4.84903 3.42559C5.60989 2.93689 6.47395 2.63177 7.37296 2.53433C8.27198 2.43688 9.18135 2.54979 10.0292 2.86412C10.8771 3.17845 11.6403 3.68561 12.2586 4.34554C12.8768 5.00547 13.3332 5.80009 13.5916 6.66667H15.0833C15.8933 6.66656 16.6816 6.92877 17.3302 7.41405C17.9789 7.89932 18.4529 8.58158 18.6814 9.35873C18.91 10.1359 18.8807 10.9661 18.598 11.7253C18.3153 12.4844 17.7944 13.1316 17.1133 13.57" stroke="#1283FF" stroke-width="1.66667" stroke-linecap="round" stroke-linejoin="round"/>
</svg>
