<svg width="20" height="20" viewBox="0 0 20 20" fill="none" xmlns="http://www.w3.org/2000/svg">
<path d="M11.6666 1.66666V5C11.6666 5.44202 11.8422 5.86595 12.1547 6.17851C12.4673 6.49107 12.8912 6.66666 13.3333 6.66666H16.6666M9.99992 10V15M9.99992 10L12.4999 12.5M9.99992 10L7.49992 12.5M12.4999 1.66666H4.99992C4.55789 1.66666 4.13397 1.84226 3.82141 2.15482C3.50885 2.46738 3.33325 2.8913 3.33325 3.33333V16.6667C3.33325 17.1087 3.50885 17.5326 3.82141 17.8452C4.13397 18.1577 4.55789 18.3333 4.99992 18.3333H14.9999C15.4419 18.3333 15.8659 18.1577 16.1784 17.8452C16.491 17.5326 16.6666 17.1087 16.6666 16.6667V5.83333L12.4999 1.66666Z" stroke="#1283FF" stroke-width="1.66667" stroke-linecap="round" stroke-linejoin="round"/>
</svg>
